<?xml version="1.0" standalone="no"?>
<!DOCTYPE svg PUBLIC "-//W3C//DTD SVG 20010904//EN"
 "http://www.w3.org/TR/2001/REC-SVG-20010904/DTD/svg10.dtd">
<svg version="1.0" xmlns="http://www.w3.org/2000/svg" class="pin-todo-icon"
 width="36" height="36" viewBox="0 0 64.000000 64.000000"
 preserveAspectRatio="xMidYMid meet">

    <g transform="translate(0.000000,64.000000) scale(0.100000,-0.100000)"
    fill="#0067FF" stroke="none">
    <path d="M432 618 c-7 -7 -12 -20 -12 -29 0 -21 -103 -84 -152 -93 -40 -7
    -118 -60 -118 -79 0 -7 18 -31 40 -52 22 -21 40 -43 40 -48 0 -5 -50 -72 -111
    -149 -60 -77 -109 -144 -107 -150 2 -5 70 43 152 107 l148 117 43 -42 c26 -26
    50 -41 61 -38 23 4 61 60 74 110 17 63 77 156 102 160 45 6 32 37 -49 119 -44
    43 -84 79 -89 79 -6 0 -15 -5 -22 -12z m165 -165 c-10 -9 -158 138 -150 150 3
    5 40 -25 81 -66 42 -42 73 -80 69 -84z m-93 48 l58 -59 -21 -21 c-12 -12 -21
    -25 -21 -30 0 -6 -9 -25 -19 -43 -11 -18 -25 -52 -31 -74 -7 -23 -23 -55 -36
    -70 l-23 -29 -120 120 c-112 111 -119 120 -104 137 8 9 35 25 59 34 l44 17 56
    -53 c69 -65 85 -57 20 9 l-48 49 23 14 c13 8 40 25 59 36 19 12 37 22 40 22 3
    0 32 -27 64 -59z m-232 -218 c10 -9 18 -20 18 -24 0 -8 -185 -159 -195 -159
    -6 0 147 198 154 199 3 1 13 -6 23 -16z"/>
    <path d="M415 511 c-10 -17 12 -21 25 -6 10 12 10 15 -3 15 -9 0 -18 -4 -22
    -9z"/>
    <path d="M455 479 c-4 -6 -5 -13 -2 -16 7 -7 27 6 27 18 0 12 -17 12 -25 -2z"/>
    <path d="M490 434 c0 -14 3 -14 15 -4 8 7 15 14 15 16 0 2 -7 4 -15 4 -8 0
    -15 -7 -15 -16z"/>
    <path d="M420 362 c0 -13 23 -32 39 -32 11 0 10 4 -4 20 -19 21 -35 26 -35 12z"/>
    </g>
</svg>
