<?xml version="1.0" standalone="no"?>
<!DOCTYPE svg PUBLIC "-//W3C//DTD SVG 20010904//EN"
 "http://www.w3.org/TR/2001/REC-SVG-20010904/DTD/svg10.dtd">
<svg version="1.0" xmlns="http://www.w3.org/2000/svg" class="pin-todo-icon"
 width="36" height="36" viewBox="0 0 64.000000 64.000000"
 preserveAspectRatio="xMidYMid meet">

<g transform="translate(0.000000,64.000000) scale(0.100000,-0.100000)"
fill="#0067FF" stroke="none">
<path d="M432 618 c-7 -7 -12 -20 -12 -29 0 -21 -103 -84 -152 -93 -19 -3 -43
-13 -54 -21 -18 -13 -25 -8 -101 68 -45 44 -86 78 -90 74 -4 -4 28 -43 71 -86
72 -72 77 -80 65 -99 -12 -20 -10 -26 29 -65 23 -23 42 -46 42 -51 0 -4 -50
-71 -111 -148 -60 -77 -109 -144 -107 -150 2 -5 70 43 152 107 l148 117 42
-41 c42 -41 69 -51 82 -30 4 7 39 -22 90 -72 46 -46 87 -80 91 -76 4 4 -30 45
-76 91 -83 83 -83 83 -68 112 8 16 17 41 21 56 12 51 75 146 98 150 45 6 32
37 -49 119 -44 43 -84 79 -89 79 -6 0 -15 -5 -22 -12z m165 -165 c-10 -9 -158
138 -150 150 3 5 40 -25 81 -66 42 -42 73 -80 69 -84z m-93 48 l58 -59 -21
-21 c-12 -12 -21 -24 -21 -28 0 -5 -11 -30 -25 -57 -14 -27 -25 -57 -25 -66 0
-9 -7 -25 -14 -36 -14 -18 -21 -13 -130 95 -63 63 -113 118 -110 122 2 4 20
13 40 19 34 12 36 11 90 -40 69 -65 85 -57 20 9 l-48 49 23 14 c13 8 40 25 59
36 19 12 37 22 40 22 3 0 32 -27 64 -59z m-190 -190 c79 -79 114 -121 106
-126 -8 -5 -54 35 -131 111 -104 104 -127 134 -101 134 4 0 61 -53 126 -119z
m-42 -28 c10 -9 18 -20 18 -24 0 -8 -185 -159 -195 -159 -6 0 147 198 154 199
3 1 13 -6 23 -16z"/>
<path d="M415 511 c-10 -17 12 -21 25 -6 10 12 10 15 -3 15 -9 0 -18 -4 -22
-9z"/>
<path d="M455 479 c-4 -6 -5 -13 -2 -16 7 -7 27 6 27 18 0 12 -17 12 -25 -2z"/>
<path d="M490 434 c0 -14 3 -14 15 -4 8 7 15 14 15 16 0 2 -7 4 -15 4 -8 0
-15 -7 -15 -16z"/>
<path d="M420 362 c0 -13 23 -32 39 -32 11 0 10 4 -4 20 -19 21 -35 26 -35 12z"/>
</g>
</svg>
